# xmcd
#
# Track frame offsets:
#	150
#	9689
#	20399
#	29985
#	40325
#	48326
#	59434
#	69555
#	79507
#	87937
#	97762
#	109131
#	117963
#	127770
#	138682
#	150268
#	162379
#	175664
#	188667
#	196719
#	208562
#	218978
#	229604
#	241018
#
# Disc length: 3347 seconds
#
# Revision: 0
# Processed by: cddbd v1.5.2PL0 Copyright (c) Steve Scherf et al.
# Submitted via: EasyCDDAExtractor 16.0.1.1
#
DISCID=370d1118
DTITLE=Floyd Cramer - I Remember Hank Williams -62+Comin On' -63
DYEAR=1962
DGENRE=Pianorocck
TTITLE0=Lovesick Blues
TTITLE1=Cold  Cold Heart
TTITLE2=Jambalaya
TTITLE3=Alone And Forsaken
TTITLE4=Why Don't You Love Me
TTITLE5=A House Of Gold
TTITLE6=Kaw-Liga
TTITLE7=I Can't Help It
TTITLE8=Hey  Good Lookin'
TTITLE9=I'm So Lonesome I Could Cry
TTITLE10=Your Cheatin' Heart
TTITLE11=I Saw The Light
TTITLE12=All Keyed Up
TTITLE13=Satan's Doll
TTITLE14=Mood Mist
TTITLE15=Green Door
TTITLE16=Ol' Man River
TTITLE17=What'd I Say
TTITLE18=The Chase
TTITLE19=The Huckle Buckle
TTITLE20=(These Are) The Young Years
TTITLE21=Steel Guitar Rag
TTITLE22=Drown In My Own Tears
TTITLE23=Back In The Saddle Again
EXTD=
EXTT0=
EXTT1=
EXTT2=
EXTT3=
EXTT4=
EXTT5=
EXTT6=
EXTT7=
EXTT8=
EXTT9=
EXTT10=
EXTT11=
EXTT12=
EXTT13=
EXTT14=
EXTT15=
EXTT16=
EXTT17=
EXTT18=
EXTT19=
EXTT20=
EXTT21=
EXTT22=
EXTT23=
PLAYORDER=
